# xmcd CD database file
#
# Track frame offsets:
#	150
#	17750
#	34268
#	48222
#	62562
#	76536
#	92063
#	106505
#	119133
#	132725
#	150640
#	168458
#
# Disc length: 2441 seconds
#
# Revision: 0
# Processed by: cddbd v1.5.2PL0 Copyright (c) Steve Scherf et al.
# Submitted via: CDex 2.11
#
DISCID=9209870c
DTITLE=Dimension Latina - Grandes Exitos Vol I
DYEAR=1900
DGENRE=Salsa
TTITLE0=Taboga
TTITLE1=Lloraras
TTITLE2=Julia
TTITLE3=A Barranquilla
TTITLE4=Sentimiento
TTITLE5=Cien fuegos
TTITLE6=Que bailen todos
TTITLE7=La piragua
TTITLE8=Vuelta y vuelta
TTITLE9=El frutero
TTITLE10=Arroz con manteca
TTITLE11=Dulce cantar
EXTD=
EXTT0=
EXTT1=
EXTT2=
EXTT3=
EXTT4=
EXTT5=
EXTT6=
EXTT7=
EXTT8=
EXTT9=
EXTT10=
EXTT11=
PLAYORDER=
